# xmcd
#
# Track frame offsets:
# 150
# 13361
# 26094
# 41305
# 58419
# 74178
# 92394
# 108020
# 128572
# 146445
# 159415
#
# Disc length: 2361 seconds
#
#
# Revision: 0
# Processed by: cddbd v1.5.1PL0 Copyright (c) Steve Scherf et al.
# Submitted via: FreeRIP 2.53 
#
DISCID=9209370b
DTITLE=Gunnar Danielsson - Grön
DYEAR=2001
DGENRE=Blues
TTITLE0=Hårddisk blues
TTITLE1=Jag har ändrat stil
TTITLE2=Bryt ihop och gå vidare
TTITLE3=Gråter när jag kommer hem
TTITLE4=Har inte tid, tid är det enda jag har
TTITLE5=Sånt man bara inte gör
TTITLE6=Som en orangutang
TTITLE7=Skulle gått för en timme sen
TTITLE8=På ett mörkt och ensligt ställe dit skvallret inte når
TTITLE9=Som att gräva i fickan efter någonting man inte har
TTITLE10=Sekunda vals (nr 2)
EXTD=
EXTT0=
EXTT1=
EXTT2=
EXTT3=
EXTT4=
EXTT5=
EXTT6=
EXTT7=
EXTT8=
EXTT9=
EXTT10=
PLAYORDER=
